<?xml version="1.0" encoding="UTF-8" standalone="no"?>
<!-- Created with Inkscape (http://www.inkscape.org/) -->

<svg
   width="512"
   height="512"
   viewBox="0 0 512 512"
   version="1.1"
   id="svg5"
   inkscape:version="1.2.2 (b0a8486541, 2022-12-01)"
   sodipodi:docname="no-blood.svg"
   xml:space="preserve"
   xmlns:inkscape="http://www.inkscape.org/namespaces/inkscape"
   xmlns:sodipodi="http://sodipodi.sourceforge.net/DTD/sodipodi-0.dtd"
   xmlns="http://www.w3.org/2000/svg"
   xmlns:svg="http://www.w3.org/2000/svg"><sodipodi:namedview
     id="namedview7"
     pagecolor="#505050"
     bordercolor="#ffffff"
     borderopacity="1"
     inkscape:showpageshadow="0"
     inkscape:pageopacity="0"
     inkscape:pagecheckerboard="1"
     inkscape:deskcolor="#505050"
     inkscape:document-units="px"
     showgrid="false"
     inkscape:zoom="0.32"
     inkscape:cx="214.0625"
     inkscape:cy="465.625"
     inkscape:window-width="1366"
     inkscape:window-height="699"
     inkscape:window-x="0"
     inkscape:window-y="0"
     inkscape:window-maximized="1"
     inkscape:current-layer="layer1" /><defs
     id="defs2"><inkscape:path-effect
       effect="powerclip"
       id="path-effect1687"
       is_visible="true"
       lpeversion="1"
       inverse="true"
       flatten="false"
       hide_clip="false"
       message="Usar a regra de preenchimento par ou ímpar na caixa de diálogo &lt;b&gt;preenchimento e contorno&lt;/b&gt; se nenhum resultado nivelar após converter o clipe em caminhos." /><inkscape:path-effect
       effect="powerclip"
       id="path-effect1509"
       is_visible="true"
       lpeversion="1"
       inverse="true"
       flatten="false"
       hide_clip="false"
       message="Usar a regra de preenchimento par ou ímpar na caixa de diálogo &lt;b&gt;preenchimento e contorno&lt;/b&gt; se nenhum resultado nivelar após converter o clipe em caminhos." /><clipPath
       clipPathUnits="userSpaceOnUse"
       id="clipPath1505"><rect
         style="display:none;fill:#ff0000;stroke:#000000;stroke-width:5;stroke-linecap:butt;stroke-linejoin:bevel;stroke-dasharray:none;paint-order:markers fill stroke"
         id="rect1507"
         width="648.41138"
         height="207.83778"
         x="-51.237617"
         y="-49.93856"
         ry="52.332676"
         d="M 1.0950584,-49.93856 H 544.84108 c 28.99231,0 52.33268,23.340373 52.33268,52.3326754 V 105.56655 c 0,28.9923 -23.34037,52.33267 -52.33268,52.33267 H 1.0950584 c -28.9923024,0 -52.3326754,-23.34037 -52.3326754,-52.33267 V 2.3941154 c 0,-28.9923024 23.340373,-52.3326754 52.3326754,-52.3326754 z" /><path
         id="lpe_path-effect1509"
         style="fill:#ff0000;stroke:#000000;stroke-width:5;stroke-linecap:butt;stroke-linejoin:bevel;stroke-dasharray:none;paint-order:markers fill stroke"
         class="powerclip"
         d="M 123.5681,33.304001 H 388.4319 V 478.696 H 123.5681 Z M 1.0950584,-49.93856 c -28.9923024,0 -52.3326754,23.340373 -52.3326754,52.3326754 V 105.56655 c 0,28.9923 23.340373,52.33267 52.3326754,52.33267 H 544.84108 c 28.99231,0 52.33268,-23.34037 52.33268,-52.33267 V 2.3941154 c 0,-28.9923024 -23.34037,-52.3326754 -52.33268,-52.3326754 z" /></clipPath><clipPath
       clipPathUnits="userSpaceOnUse"
       id="clipPath1683"><rect
         style="display:none;fill:none;stroke:#000000;stroke-width:5;stroke-linecap:butt;stroke-linejoin:bevel;stroke-dasharray:none;paint-order:markers fill stroke"
         id="rect1685"
         width="80.575607"
         height="37.448521"
         x="215.99471"
         y="43.803589"
         ry="18.72426"
         d="m 234.71897,43.803589 h 43.12708 c 10.37324,0 18.72426,8.35102 18.72426,18.72426 0,10.37324 -8.35102,18.724261 -18.72426,18.724261 h -43.12708 c -10.37324,0 -18.72426,-8.351021 -18.72426,-18.724261 0,-10.37324 8.35102,-18.72426 18.72426,-18.72426 z" /><path
         id="lpe_path-effect1687"
         style="fill:none;stroke:#000000;stroke-width:5;stroke-linecap:butt;stroke-linejoin:bevel;stroke-dasharray:none;paint-order:markers fill stroke"
         class="powerclip"
         d="m 231.67255,10.22946 h 48.6549 v 69.454769 h -48.6549 z m 3.04642,33.574129 c -10.37324,0 -18.72426,8.35102 -18.72426,18.72426 0,10.37324 8.35102,18.724261 18.72426,18.724261 h 43.12708 c 10.37324,0 18.72426,-8.351021 18.72426,-18.724261 0,-10.37324 -8.35102,-18.72426 -18.72426,-18.72426 z" /></clipPath></defs><g
     inkscape:label="Camada 1"
     inkscape:groupmode="layer"
     id="layer1"><g
       id="g1708"
       transform="matrix(0.73774011,0,0,0.70418824,67.138532,72.988375)"><ellipse
         style="fill:#800000;stroke:#000000;stroke-width:5;stroke-linecap:butt;stroke-linejoin:bevel;stroke-dasharray:none;paint-order:markers fill stroke"
         id="path1701"
         cx="256"
         cy="473.50238"
         rx="14.394397"
         ry="34.24725" /><g
         id="g1577"><path
           style="fill:#800000;stroke:#000000;stroke-width:5;stroke-linecap:butt;stroke-linejoin:bevel;stroke-dasharray:none;paint-order:markers fill stroke"
           id="rect448"
           width="249.8638"
           height="430.392"
           x="131.0681"
           y="40.804001"
           ry="45.511627"
           inkscape:label="sangue"
           clip-path="url(#clipPath1505)"
           d="m 176.57973,40.804001 h 158.84054 c 25.21344,0 45.51163,20.298186 45.51163,45.511627 V 425.68437 c 0,25.21344 -20.29819,45.51163 -45.51163,45.51163 H 176.57973 c -25.21344,0 -45.51163,-20.29819 -45.51163,-45.51163 V 86.315628 c 0,-25.213441 20.29819,-45.511627 45.51163,-45.511627 z"
           inkscape:path-effect="#path-effect1509"
           sodipodi:type="rect" /><rect
           style="fill:none;stroke:#000000;stroke-width:8;stroke-linecap:butt;stroke-linejoin:bevel;stroke-dasharray:none;paint-order:markers fill stroke"
           id="rect1481"
           width="249.8638"
           height="430.392"
           x="131.0681"
           y="40.804001"
           ry="45.511627"
           inkscape:label="contorno" /></g><path
         style="fill:none;stroke:#000000;stroke-width:5;stroke-linecap:butt;stroke-linejoin:bevel;stroke-dasharray:none;paint-order:markers fill stroke"
         id="path1579"
         clip-path="url(#clipPath1683)"
         inkscape:path-effect="#path-effect1687"
         sodipodi:type="arc"
         sodipodi:cx="256"
         sodipodi:cy="44.956844"
         sodipodi:rx="16.82745"
         sodipodi:ry="27.227385"
         d="M 272.82745,44.956844 A 16.82745,27.227385 0 0 1 256,72.184229 16.82745,27.227385 0 0 1 239.17255,44.956844 16.82745,27.227385 0 0 1 256,17.72946 16.82745,27.227385 0 0 1 272.82745,44.956844 Z"
         transform="translate(0,-2)" /></g><g
       id="g1798"
       transform="matrix(0.49980433,0,0,0.48201688,6.1050322,14.997573)"><path
         transform="matrix(5.1965,0,0,5.3726,-738.86,-644.43)"
         d="m 324.45,213.01 a 86.051,83.23 0 1 1 -172.1,0 86.051,83.23 0 1 1 172.1,0 z"
         fill="none"
         stroke="#ff0000"
         stroke-width="20"
         id="path1786" /><path
         d="M 166.83,166.83 833.16,833.16"
         fill="none"
         stroke="#ff0000"
         stroke-width="100"
         id="path1788" /></g></g></svg>
